<mxfile host="app.diagrams.net" modified="2023-10-14T20:33:54.378Z" agent="Mozilla/5.0 (Windows NT 10.0; Win64; x64) AppleWebKit/537.36 (KHTML, like Gecko) Chrome/117.0.0.0 Safari/537.36" version="21.8.0" etag="x4aNb0MOuOhoV0DbKitG" type="github">
  <diagram name="Page-1" id="Gz2OW-2O6twBv-y2hm4n">
    <mxGraphModel>
      <root>
        <mxCell id="0" />
        <mxCell id="1" parent="0" />
      </root>
    </mxGraphModel>
  </diagram>
</mxfile>
